<?xml version="1.0" encoding="utf-8"?>
<!-- Generator: Adobe Illustrator 16.0.0, SVG Export Plug-In . SVG Version: 6.00 Build 0)  -->
<!DOCTYPE svg PUBLIC "-//W3C//DTD SVG 1.1//EN" "http://www.w3.org/Graphics/SVG/1.1/DTD/svg11.dtd">
<svg version="1.1" id="Layer_1" xmlns="http://www.w3.org/2000/svg" xmlns:xlink="http://www.w3.org/1999/xlink" x="0px" y="0px"
	 width="15.846px" height="15.846px" viewBox="0.077 0.077 15.846 15.846" enable-background="new 0.077 0.077 15.846 15.846"
	 xml:space="preserve">
<path fill="none" stroke="#0080FF" stroke-width="0.5" stroke-miterlimit="10" d="M6.561,15.074l-0.006,0.005l-0.153,0.114
	L5.89,15.578c-0.144,0.107-0.339,0.125-0.503,0.045c-0.165-0.082-0.264-0.247-0.264-0.43v-0.639v-0.19v-0.01v-0.12v-1.438H3.684
	H2.245c-1.058,0-1.918-0.86-1.918-1.918V2.245c0-1.058,0.86-1.918,1.918-1.918h11.51c1.059,0,1.918,0.86,1.918,1.918v8.633
	c0,1.058-0.859,1.918-1.918,1.918H9.598L6.561,15.074z"/>
<g>
	<path fill="#0080FF" d="M7.979,2.854c-1.912,0-3.46,1.549-3.46,3.461v0.667c0,0.221-0.178,0.399-0.399,0.399S3.72,7.202,3.72,6.981
		V6.315c0-2.353,1.907-4.259,4.259-4.259c2.353,0,4.26,1.907,4.26,4.259v2.398c0,0.809-0.655,2.465-1.467,2.465l-1.835-0.003
		c-0.138,0.239-0.396,0.399-0.692,0.399H7.713c-0.441,0-0.799-0.356-0.799-0.799c0-0.439,0.358-0.798,0.799-0.798h0.532
		c0.296,0,0.554,0.162,0.692,0.398l1.838,0.003c0.367,0,0.665-1.299,0.665-1.666V6.315C11.44,4.403,9.892,2.854,7.979,2.854z"/>
	<path fill="#0080FF" d="M3.618,4.913h0.22c0.244,0,0.44,0.196,0.44,0.44v1.543c0,0.244-0.197,0.44-0.44,0.44h-0.22
		c-0.486,0-0.882-0.395-0.882-0.881V5.794C2.736,5.309,3.131,4.913,3.618,4.913z"/>
	<path fill="#0080FF" d="M12.523,4.913c0.486,0,0.882,0.396,0.882,0.881v0.66c0,0.487-0.396,0.882-0.882,0.882h-0.22
		c-0.243,0-0.441-0.197-0.441-0.44V5.354c0-0.244,0.198-0.44,0.441-0.44H12.523z"/>
</g>
</svg>
